<svg width="168" height="48" viewBox="0 0 168 48" fill="none" xmlns="http://www.w3.org/2000/svg">
<path d="M51 0H160.243C164.03 0 167.1 3.07005 167.1 6.85714V48H51V0Z" fill="#5C27C0"/>
<rect x="0.857143" y="0.857143" width="139.586" height="46.2857" rx="6" stroke="#5C27C0" stroke-width="1.71429"/>
<path d="M153.3 31.9429H154.205V38.8H153.3V37.456C152.669 38.4618 151.746 38.9646 150.53 38.9646C149.552 38.9646 148.715 38.6172 148.02 37.9223C147.334 37.2275 146.992 36.3772 146.992 35.3715C146.992 34.3658 147.334 33.5155 148.02 32.8206C148.715 32.1258 149.552 31.7783 150.53 31.7783C151.746 31.7783 152.669 32.2812 153.3 33.2869V31.9429ZM148.678 37.3052C149.2 37.8263 149.84 38.0869 150.598 38.0869C151.357 38.0869 151.997 37.8263 152.518 37.3052C153.04 36.7749 153.3 36.1303 153.3 35.3715C153.3 34.6126 153.04 33.9726 152.518 33.4515C151.997 32.9212 151.357 32.656 150.598 32.656C149.84 32.656 149.2 32.9212 148.678 33.4515C148.157 33.9726 147.897 34.6126 147.897 35.3715C147.897 36.1303 148.157 36.7749 148.678 37.3052ZM157.041 30.2972C156.913 30.4252 156.757 30.4892 156.574 30.4892C156.391 30.4892 156.236 30.4252 156.108 30.2972C155.98 30.1692 155.916 30.0138 155.916 29.8309C155.916 29.648 155.98 29.4926 156.108 29.3646C156.236 29.2366 156.391 29.1726 156.574 29.1726C156.757 29.1726 156.913 29.2366 157.041 29.3646C157.169 29.4926 157.233 29.648 157.233 29.8309C157.233 30.0138 157.169 30.1692 157.041 30.2972ZM156.122 38.8V31.9429H157.027V38.8H156.122Z" fill="white"/>
<path d="M11.7708 39.6001V19.0243H17.3514V39.6001H11.7708ZM17.3514 28.2259L15.1788 26.7775C15.4344 24.2499 16.1728 22.2619 17.394 20.8135C18.6152 19.3367 20.376 18.5983 22.6764 18.5983C23.6704 18.5983 24.565 18.7687 25.3602 19.1095C26.1555 19.4219 26.8797 19.9473 27.5329 20.6857L24.0397 24.6901C23.7273 24.3493 23.3438 24.0937 22.8894 23.9233C22.4635 23.7529 21.9665 23.6677 21.3984 23.6677C20.2056 23.6677 19.2258 24.0511 18.459 24.8179C17.7206 25.5563 17.3514 26.6923 17.3514 28.2259ZM39.4435 40.0261C37.2283 40.0261 35.2545 39.5575 33.5221 38.6203C31.8181 37.6547 30.4691 36.3625 29.4751 34.7437C28.5095 33.1249 28.0267 31.2931 28.0267 29.2483C28.0267 27.2319 28.5095 25.4285 29.4751 23.8381C30.4691 22.2193 31.7897 20.9413 33.4369 20.0041C35.1125 19.0385 37.0011 18.5557 39.1027 18.5557C41.3179 18.5557 43.1781 19.0527 44.6833 20.0467C46.1885 21.0123 47.3813 22.4039 48.2617 24.2215L35.9503 36.3199L32.9257 33.2527L44.0443 22.3471L43.8739 26.2663C43.5047 25.3291 42.9367 24.6049 42.1699 24.0937C41.4315 23.5825 40.4375 23.3269 39.1879 23.3269C37.9951 23.3269 36.9585 23.5825 36.0781 24.0937C35.1977 24.5765 34.5161 25.2581 34.0333 26.1385C33.5789 27.0189 33.3517 28.0271 33.3517 29.1631C33.3517 30.3843 33.6073 31.4635 34.1185 32.4007C34.6297 33.3095 35.3397 34.0195 36.2485 34.5307C37.1857 35.0419 38.2791 35.2975 39.5287 35.2975C40.6363 35.2975 41.6161 35.1271 42.4681 34.7863C43.3201 34.4171 44.0727 33.8775 44.7259 33.1675L48.0061 36.4477C46.9553 37.6405 45.6915 38.5351 44.2147 39.1315C42.7663 39.7279 41.1759 40.0261 39.4435 40.0261Z" fill="#5C27C0"/>
<path d="M79.639 18.3001H84.4954L77.8072 39.6001H73.2916L68.8612 25.2439L64.3882 39.6001H59.8726L53.1844 18.3001H58.0408L62.173 32.9971L66.646 18.3001H71.0338L75.4642 32.9971L79.639 18.3001ZM96.253 40.1539C93.129 40.1539 90.4736 39.0747 88.2868 36.9163C86.1 34.7579 85.0066 32.1025 85.0066 28.9501C85.0066 25.7977 86.1 23.1423 88.2868 20.9839C90.4736 18.8255 93.129 17.7463 96.253 17.7463C99.4054 17.7463 102.061 18.8255 104.219 20.9839C106.406 23.1423 107.499 25.7977 107.499 28.9501C107.499 32.1025 106.406 34.7579 104.219 36.9163C102.061 39.0747 99.4054 40.1539 96.253 40.1539ZM91.5244 33.7639C92.8024 35.0419 94.3786 35.6809 96.253 35.6809C98.1274 35.6809 99.7036 35.0419 100.982 33.7639C102.26 32.4859 102.899 30.8813 102.899 28.9501C102.899 27.0189 102.26 25.4143 100.982 24.1363C99.7036 22.8583 98.1274 22.2193 96.253 22.2193C94.3786 22.2193 92.8024 22.8583 91.5244 24.1363C90.2464 25.4143 89.6074 27.0189 89.6074 28.9501C89.6074 30.8813 90.2464 32.4859 91.5244 33.7639ZM115.408 21.8785C116.573 19.2373 118.76 17.9167 121.969 17.9167V22.9009C120.208 22.7873 118.674 23.2133 117.368 24.1789C116.062 25.1161 115.408 26.6781 115.408 28.8649V39.6001H110.808V18.3001H115.408V21.8785ZM143.345 39.6001H137.85L129.117 29.7595V39.6001H124.516V9.78009H129.117V27.7147L137.381 18.3001H143.004L133.632 28.7371L143.345 39.6001Z" fill="white"/>
</svg>
