<svg width="23" height="23" viewBox="0 0 23 23" fill="none" xmlns="http://www.w3.org/2000/svg">
<path d="M10.237 2.94989C10.4953 2.15487 11.6201 2.15487 11.8784 2.94989L13.3301 7.41796C13.4457 7.7735 13.777 8.01423 14.1508 8.01423H18.8488C19.6848 8.01423 20.0323 9.08392 19.3561 9.57526L15.5553 12.3367C15.2528 12.5564 15.1263 12.9459 15.2418 13.3015L16.6936 17.7695C16.9519 18.5646 16.042 19.2257 15.3657 18.7343L11.5649 15.9729C11.2625 15.7532 10.8529 15.7532 10.5505 15.9729L6.74971 18.7343C6.07343 19.2257 5.16349 18.5646 5.42181 17.7695L6.87358 13.3015C6.9891 12.9459 6.86254 12.5564 6.5601 12.3367L2.75933 9.57526C2.08305 9.08392 2.43061 8.01423 3.26654 8.01423H7.96455C8.33839 8.01423 8.66972 7.7735 8.78524 7.41796L10.237 2.94989Z" fill="#FFB649"/>
</svg>
